<mxfile host="app.diagrams.net" modified="2024-05-17T14:29:30.498Z" agent="Mozilla/5.0 (Windows NT 10.0; Win64; x64) AppleWebKit/537.36 (KHTML, like Gecko) Chrome/124.0.0.0 Safari/537.36" etag="DkKJmjU9iFNNw39dPYQG" version="24.4.3" type="github">
  <diagram name="Página-1" id="Q4CVoRl8EXGw-IsRdLpL">
    <mxGraphModel dx="880" dy="468" grid="1" gridSize="10" guides="1" tooltips="1" connect="1" arrows="1" fold="1" page="1" pageScale="1" pageWidth="827" pageHeight="1169" math="0" shadow="0">
      <root>
        <mxCell id="0" />
        <mxCell id="1" parent="0" />
        <mxCell id="dOIm3IzeVwMRjAjJEMJG-2" style="edgeStyle=orthogonalEdgeStyle;rounded=0;orthogonalLoop=1;jettySize=auto;html=1;" edge="1" parent="1" source="dOIm3IzeVwMRjAjJEMJG-1">
          <mxGeometry relative="1" as="geometry">
            <mxPoint x="414" y="140" as="targetPoint" />
          </mxGeometry>
        </mxCell>
        <mxCell id="dOIm3IzeVwMRjAjJEMJG-4" style="edgeStyle=orthogonalEdgeStyle;rounded=0;orthogonalLoop=1;jettySize=auto;html=1;" edge="1" parent="1" source="dOIm3IzeVwMRjAjJEMJG-1">
          <mxGeometry relative="1" as="geometry">
            <mxPoint x="530" y="70" as="targetPoint" />
          </mxGeometry>
        </mxCell>
        <mxCell id="dOIm3IzeVwMRjAjJEMJG-1" value="&lt;b&gt;INICIO&lt;/b&gt;" style="rounded=1;whiteSpace=wrap;html=1;" vertex="1" parent="1">
          <mxGeometry x="354" y="40" width="120" height="60" as="geometry" />
        </mxCell>
        <mxCell id="dOIm3IzeVwMRjAjJEMJG-6" style="edgeStyle=orthogonalEdgeStyle;rounded=0;orthogonalLoop=1;jettySize=auto;html=1;" edge="1" parent="1" source="dOIm3IzeVwMRjAjJEMJG-3">
          <mxGeometry relative="1" as="geometry">
            <mxPoint x="414" y="250" as="targetPoint" />
          </mxGeometry>
        </mxCell>
        <mxCell id="dOIm3IzeVwMRjAjJEMJG-3" value="Escreva seu nome para realizarmos a busca no banco de dados:" style="rounded=0;whiteSpace=wrap;html=1;" vertex="1" parent="1">
          <mxGeometry x="354" y="150" width="120" height="60" as="geometry" />
        </mxCell>
        <mxCell id="dOIm3IzeVwMRjAjJEMJG-5" value="cadeia nome = &quot;Matheus Costa&quot;&lt;div&gt;cadeia comparacao&lt;/div&gt;&lt;div&gt;logico verifica = verdadeiro&lt;/div&gt;" style="rounded=0;whiteSpace=wrap;html=1;align=left;" vertex="1" parent="1">
          <mxGeometry x="530" y="40" width="200" height="70" as="geometry" />
        </mxCell>
        <mxCell id="dOIm3IzeVwMRjAjJEMJG-9" style="edgeStyle=orthogonalEdgeStyle;rounded=0;orthogonalLoop=1;jettySize=auto;html=1;" edge="1" parent="1" source="dOIm3IzeVwMRjAjJEMJG-8">
          <mxGeometry relative="1" as="geometry">
            <mxPoint x="414" y="330" as="targetPoint" />
          </mxGeometry>
        </mxCell>
        <mxCell id="dOIm3IzeVwMRjAjJEMJG-8" value="comparacao &amp;lt;- entrada" style="ellipse;whiteSpace=wrap;html=1;" vertex="1" parent="1">
          <mxGeometry x="311" y="250" width="206" height="40" as="geometry" />
        </mxCell>
        <mxCell id="dOIm3IzeVwMRjAjJEMJG-11" style="edgeStyle=orthogonalEdgeStyle;rounded=0;orthogonalLoop=1;jettySize=auto;html=1;" edge="1" parent="1" source="dOIm3IzeVwMRjAjJEMJG-10">
          <mxGeometry relative="1" as="geometry">
            <mxPoint x="270" y="350" as="targetPoint" />
          </mxGeometry>
        </mxCell>
        <mxCell id="dOIm3IzeVwMRjAjJEMJG-12" style="edgeStyle=orthogonalEdgeStyle;rounded=0;orthogonalLoop=1;jettySize=auto;html=1;" edge="1" parent="1" source="dOIm3IzeVwMRjAjJEMJG-10">
          <mxGeometry relative="1" as="geometry">
            <mxPoint x="570" y="350" as="targetPoint" />
          </mxGeometry>
        </mxCell>
        <mxCell id="dOIm3IzeVwMRjAjJEMJG-10" value="verifica&lt;div&gt;&lt;br&gt;&lt;/div&gt;" style="rounded=0;whiteSpace=wrap;html=1;" vertex="1" parent="1">
          <mxGeometry x="354" y="330" width="126" height="40" as="geometry" />
        </mxCell>
        <mxCell id="dOIm3IzeVwMRjAjJEMJG-16" style="edgeStyle=orthogonalEdgeStyle;rounded=0;orthogonalLoop=1;jettySize=auto;html=1;" edge="1" parent="1" source="dOIm3IzeVwMRjAjJEMJG-13">
          <mxGeometry relative="1" as="geometry">
            <mxPoint x="205" y="480" as="targetPoint" />
          </mxGeometry>
        </mxCell>
        <mxCell id="dOIm3IzeVwMRjAjJEMJG-13" value="se(verifica == (nome==comparacao)" style="ellipse;whiteSpace=wrap;html=1;aspect=fixed;" vertex="1" parent="1">
          <mxGeometry x="140" y="310" width="130" height="130" as="geometry" />
        </mxCell>
        <mxCell id="dOIm3IzeVwMRjAjJEMJG-17" style="edgeStyle=orthogonalEdgeStyle;rounded=0;orthogonalLoop=1;jettySize=auto;html=1;" edge="1" parent="1" source="dOIm3IzeVwMRjAjJEMJG-15">
          <mxGeometry relative="1" as="geometry">
            <mxPoint x="635" y="480" as="targetPoint" />
          </mxGeometry>
        </mxCell>
        <mxCell id="dOIm3IzeVwMRjAjJEMJG-15" value="senao" style="ellipse;whiteSpace=wrap;html=1;aspect=fixed;" vertex="1" parent="1">
          <mxGeometry x="570" y="310" width="130" height="130" as="geometry" />
        </mxCell>
        <mxCell id="dOIm3IzeVwMRjAjJEMJG-18" value="escreva(&quot;Está correto!&quot;)" style="rounded=0;whiteSpace=wrap;html=1;" vertex="1" parent="1">
          <mxGeometry x="120" y="480" width="150" height="50" as="geometry" />
        </mxCell>
        <mxCell id="dOIm3IzeVwMRjAjJEMJG-19" value="escreva(&quot;Nome não está registrado!&quot;)" style="rounded=0;whiteSpace=wrap;html=1;" vertex="1" parent="1">
          <mxGeometry x="550" y="480" width="160" height="50" as="geometry" />
        </mxCell>
        <mxCell id="dOIm3IzeVwMRjAjJEMJG-21" value="" style="endArrow=classic;html=1;rounded=0;exitX=0.46;exitY=1.1;exitDx=0;exitDy=0;exitPerimeter=0;" edge="1" parent="1" source="dOIm3IzeVwMRjAjJEMJG-18">
          <mxGeometry width="50" height="50" relative="1" as="geometry">
            <mxPoint x="330" y="470" as="sourcePoint" />
            <mxPoint x="350" y="650" as="targetPoint" />
            <Array as="points">
              <mxPoint x="190" y="600" />
              <mxPoint x="190" y="650" />
            </Array>
          </mxGeometry>
        </mxCell>
        <mxCell id="dOIm3IzeVwMRjAjJEMJG-22" value="" style="endArrow=classic;html=1;rounded=0;entryX=1;entryY=0.5;entryDx=0;entryDy=0;exitX=0.556;exitY=1.04;exitDx=0;exitDy=0;exitPerimeter=0;" edge="1" parent="1" source="dOIm3IzeVwMRjAjJEMJG-19" target="dOIm3IzeVwMRjAjJEMJG-23">
          <mxGeometry width="50" height="50" relative="1" as="geometry">
            <mxPoint x="650" y="550" as="sourcePoint" />
            <mxPoint x="410" y="610" as="targetPoint" />
            <Array as="points">
              <mxPoint x="640" y="650" />
            </Array>
          </mxGeometry>
        </mxCell>
        <mxCell id="dOIm3IzeVwMRjAjJEMJG-23" value="&lt;b&gt;FIM&lt;/b&gt;" style="rounded=1;whiteSpace=wrap;html=1;" vertex="1" parent="1">
          <mxGeometry x="354" y="620" width="120" height="60" as="geometry" />
        </mxCell>
        <mxCell id="dOIm3IzeVwMRjAjJEMJG-24" value="&lt;font style=&quot;font-size: 20px;&quot;&gt;&lt;span&gt;VERIFICA NOME&lt;/span&gt;&lt;/font&gt;" style="text;html=1;align=center;verticalAlign=middle;resizable=0;points=[];autosize=1;strokeColor=none;fillColor=none;labelBackgroundColor=default;textShadow=0;labelBorderColor=default;fontStyle=1" vertex="1" parent="1">
          <mxGeometry x="80" y="50" width="180" height="40" as="geometry" />
        </mxCell>
      </root>
    </mxGraphModel>
  </diagram>
</mxfile>
